<svg width="56" height="57" viewBox="0 0 56 57" fill="none" xmlns="http://www.w3.org/2000/svg">
<rect y="0.337891" width="56" height="26" rx="13" fill="#F3F3F3"/>
<path d="M15.7553 21.6143C14.602 21.6142 13.4753 21.2676 12.5213 20.6194C11.5672 19.9713 10.83 19.0515 10.405 17.9793C9.98001 16.9071 9.88695 15.732 10.1379 14.6062C10.3888 13.4805 10.9721 12.4561 11.8122 11.6659C12.8421 10.6966 15.3716 8.95147 14.9879 5.11426C19.5925 8.18403 21.8949 11.2538 17.2902 15.8584C18.0576 15.8584 19.2088 15.8584 21.1274 13.9629C21.3346 14.5561 21.5111 15.1938 21.5111 15.8584C21.5111 17.385 20.9047 18.849 19.8253 19.9284C18.7459 21.0078 17.2819 21.6143 15.7553 21.6143Z" fill="#FF4545"/>
<path d="M28.0133 12.3604C28.2173 12.3604 28.3844 12.3363 28.5148 12.2881C28.6479 12.2371 28.7542 12.1706 28.8335 12.0884C28.9128 12.0062 28.9681 11.9127 28.9993 11.8079C29.0304 11.7002 29.046 11.5897 29.046 11.4764C29.046 11.3517 29.0276 11.2398 28.9908 11.1406C28.9539 11.0415 28.8944 10.9579 28.8123 10.8899C28.7301 10.8191 28.6224 10.7652 28.4893 10.7284C28.3589 10.6916 28.1974 10.6731 28.0048 10.6731H26.921V12.3604H28.0133ZM26.921 8.14014V9.80614H27.7583C27.9368 9.80614 28.0954 9.79197 28.2343 9.76364C28.3731 9.73247 28.4893 9.68431 28.5828 9.61914C28.6763 9.55397 28.7471 9.46897 28.7953 9.36414C28.8463 9.25647 28.8718 9.12756 28.8718 8.97739C28.8718 8.82439 28.8505 8.69406 28.808 8.58639C28.7683 8.47872 28.706 8.39231 28.621 8.32714C28.536 8.26197 28.4283 8.21522 28.298 8.18689C28.1677 8.15572 28.0133 8.14014 27.8348 8.14014H26.921ZM27.8348 7.17114C28.2484 7.17114 28.6012 7.21081 28.893 7.29014C29.1877 7.36664 29.4271 7.47714 29.6113 7.62164C29.7983 7.76331 29.9343 7.93614 30.0193 8.14014C30.1043 8.34414 30.1468 8.57222 30.1468 8.82439C30.1468 8.96606 30.1255 9.10206 30.083 9.23239C30.0433 9.36272 29.9796 9.48597 29.8918 9.60214C29.8068 9.71547 29.6963 9.81889 29.5603 9.91239C29.4243 10.0059 29.2628 10.0852 29.0758 10.1504C29.4951 10.2496 29.8053 10.4111 30.0065 10.6349C30.2077 10.8587 30.3083 11.1491 30.3083 11.5061C30.3083 11.7668 30.2573 12.0091 30.1553 12.2329C30.0561 12.4567 29.9102 12.6508 29.7175 12.8151C29.5248 12.9795 29.2868 13.1084 29.0035 13.2019C28.723 13.2926 28.4 13.3379 28.0345 13.3379H25.646V7.17114H27.8348ZM32.5657 8.16989V9.75514H34.6227V10.7199H32.5657V12.3391H35.2092V13.3379H31.2822V7.17114H35.2092V8.16989H32.5657ZM39.5036 8.35264C39.4639 8.41781 39.4228 8.46597 39.3803 8.49714C39.3407 8.52547 39.2883 8.53964 39.2231 8.53964C39.1608 8.53964 39.0928 8.51839 39.0191 8.47589C38.9483 8.43056 38.8647 8.38239 38.7683 8.33139C38.672 8.28039 38.5615 8.23364 38.4368 8.19114C38.3122 8.14581 38.1663 8.12314 37.9991 8.12314C37.7044 8.12314 37.4834 8.18972 37.3361 8.32289C37.1888 8.45322 37.1151 8.62464 37.1151 8.83714C37.1151 8.97314 37.1548 9.08647 37.2341 9.17714C37.3163 9.26497 37.4225 9.34147 37.5528 9.40664C37.686 9.47181 37.8362 9.52989 38.0033 9.58089C38.1705 9.63189 38.3419 9.68856 38.5176 9.75089C38.6933 9.81039 38.8647 9.88122 39.0318 9.96339C39.199 10.0456 39.3478 10.149 39.4781 10.2736C39.6113 10.3983 39.7175 10.5513 39.7968 10.7326C39.879 10.9111 39.9201 11.1293 39.9201 11.3871C39.9201 11.6676 39.8705 11.9311 39.7713 12.1776C39.675 12.4213 39.5348 12.6352 39.3506 12.8194C39.1664 13.0007 38.9383 13.1438 38.6663 13.2486C38.3972 13.3535 38.0912 13.4059 37.7483 13.4059C37.5528 13.4059 37.3573 13.3861 37.1618 13.3464C36.9692 13.3067 36.7822 13.2515 36.6008 13.1806C36.4223 13.1098 36.2538 13.0248 36.0951 12.9256C35.9364 12.8265 35.7976 12.716 35.6786 12.5941L36.0526 11.9906C36.0838 11.9453 36.1248 11.9085 36.1758 11.8801C36.2268 11.849 36.2807 11.8334 36.3373 11.8334C36.4138 11.8334 36.4946 11.8617 36.5796 11.9184C36.6646 11.9751 36.7623 12.0374 36.8728 12.1054C36.9833 12.1734 37.1108 12.2357 37.2553 12.2924C37.4027 12.3491 37.5783 12.3774 37.7823 12.3774C38.0798 12.3774 38.3093 12.3094 38.4708 12.1734C38.6352 12.0374 38.7173 11.8348 38.7173 11.5656C38.7173 11.4098 38.6763 11.2837 38.5941 11.1874C38.5148 11.0911 38.4099 11.0103 38.2796 10.9451C38.1493 10.88 38.0005 10.8247 37.8333 10.7794C37.6662 10.7312 37.4948 10.6788 37.3191 10.6221C37.1434 10.5655 36.972 10.4975 36.8048 10.4181C36.6377 10.3388 36.4889 10.234 36.3586 10.1036C36.2283 9.97331 36.122 9.81181 36.0398 9.61914C35.9605 9.42647 35.9208 9.18706 35.9208 8.90089C35.9208 8.67139 35.9662 8.44897 36.0568 8.23364C36.1475 8.01831 36.2807 7.82706 36.4563 7.65989C36.632 7.49272 36.8473 7.35814 37.1023 7.25614C37.3602 7.15414 37.6548 7.10314 37.9863 7.10314C38.3575 7.10314 38.7003 7.16122 39.0148 7.27739C39.3322 7.39072 39.5999 7.54939 39.8181 7.75339L39.5036 8.35264ZM45.2095 8.19964H43.4075V13.3379H42.1282V8.19964H40.3262V7.17114H45.2095V8.19964ZM27.814 16.8189C27.786 16.8649 27.757 16.8989 27.727 16.9209C27.699 16.9409 27.662 16.9509 27.616 16.9509C27.572 16.9509 27.524 16.9359 27.472 16.9059C27.422 16.8739 27.363 16.8399 27.295 16.8039C27.227 16.7679 27.149 16.7349 27.061 16.7049C26.973 16.6729 26.87 16.6569 26.752 16.6569C26.544 16.6569 26.388 16.7039 26.284 16.7979C26.18 16.8899 26.128 17.0109 26.128 17.1609C26.128 17.2569 26.156 17.3369 26.212 17.4009C26.27 17.4629 26.345 17.5169 26.437 17.5629C26.531 17.6089 26.637 17.6499 26.755 17.6859C26.873 17.7219 26.994 17.7619 27.118 17.8059C27.242 17.8479 27.363 17.8979 27.481 17.9559C27.599 18.0139 27.704 18.0869 27.796 18.1749C27.89 18.2629 27.965 18.3709 28.021 18.4989C28.079 18.6249 28.108 18.7789 28.108 18.9609C28.108 19.1589 28.073 19.3449 28.003 19.5189C27.935 19.6909 27.836 19.8419 27.706 19.9719C27.576 20.0999 27.415 20.2009 27.223 20.2749C27.033 20.3489 26.817 20.3859 26.575 20.3859C26.437 20.3859 26.299 20.3719 26.161 20.3439C26.025 20.3159 25.893 20.2769 25.765 20.2269C25.639 20.1769 25.52 20.1169 25.408 20.0469C25.296 19.9769 25.198 19.8989 25.114 19.8129L25.378 19.3869C25.4 19.3549 25.429 19.3289 25.465 19.3089C25.501 19.2869 25.539 19.2759 25.579 19.2759C25.633 19.2759 25.69 19.2959 25.75 19.3359C25.81 19.3759 25.879 19.4199 25.957 19.4679C26.035 19.5159 26.125 19.5599 26.227 19.5999C26.331 19.6399 26.455 19.6599 26.599 19.6599C26.809 19.6599 26.971 19.6119 27.085 19.5159C27.201 19.4199 27.259 19.2769 27.259 19.0869C27.259 18.9769 27.23 18.8879 27.172 18.8199C27.116 18.7519 27.042 18.6949 26.95 18.6489C26.858 18.6029 26.753 18.5639 26.635 18.5319C26.517 18.4979 26.396 18.4609 26.272 18.4209C26.148 18.3809 26.027 18.3329 25.909 18.2769C25.791 18.2209 25.686 18.1469 25.594 18.0549C25.502 17.9629 25.427 17.8489 25.369 17.7129C25.313 17.5769 25.285 17.4079 25.285 17.2059C25.285 17.0439 25.317 16.8869 25.381 16.7349C25.445 16.5829 25.539 16.4479 25.663 16.3299C25.787 16.2119 25.939 16.1169 26.119 16.0449C26.301 15.9729 26.509 15.9369 26.743 15.9369C27.005 15.9369 27.247 15.9779 27.469 16.0599C27.693 16.1399 27.882 16.2519 28.036 16.3959L27.814 16.8189ZM29.6667 16.6899V17.8089H31.1187V18.4899H29.6667V19.6329H31.5327V20.3379H28.7607V15.9849H31.5327V16.6899H29.6667ZM34.789 19.6059V20.3379H32.206V15.9849H33.106V19.6059H34.789ZM37.9238 19.6059V20.3379H35.3408V15.9849H36.2408V19.6059H37.9238ZM39.3815 16.6899V17.8089H40.8335V18.4899H39.3815V19.6329H41.2475V20.3379H38.4755V15.9849H41.2475V16.6899H39.3815ZM43.2828 18.0459C43.4288 18.0459 43.5548 18.0279 43.6608 17.9919C43.7668 17.9539 43.8538 17.9029 43.9218 17.8389C43.9898 17.7729 44.0398 17.6959 44.0718 17.6079C44.1038 17.5199 44.1198 17.4239 44.1198 17.3199C44.1198 17.1139 44.0508 16.9539 43.9128 16.8399C43.7768 16.7259 43.5688 16.6689 43.2888 16.6689H42.8208V18.0459H43.2828ZM45.3918 20.3379H44.5788C44.4268 20.3379 44.3168 20.2799 44.2488 20.1639L43.4208 18.8289C43.3868 18.7769 43.3488 18.7389 43.3068 18.7149C43.2668 18.6909 43.2068 18.6789 43.1268 18.6789H42.8208V20.3379H41.9208V15.9849H43.2888C43.5928 15.9849 43.8528 16.0169 44.0688 16.0809C44.2848 16.1429 44.4618 16.2299 44.5998 16.3419C44.7378 16.4539 44.8388 16.5879 44.9028 16.7439C44.9668 16.8979 44.9988 17.0679 44.9988 17.2539C44.9988 17.3979 44.9778 17.5349 44.9358 17.6649C44.8958 17.7929 44.8368 17.9099 44.7588 18.0159C44.6808 18.1219 44.5848 18.2159 44.4708 18.2979C44.3568 18.3799 44.2268 18.4459 44.0808 18.4959C44.1388 18.5279 44.1928 18.5669 44.2428 18.6129C44.2928 18.6569 44.3378 18.7099 44.3778 18.7719L45.3918 20.3379Z" fill="#FF4545"/>
<rect y="30.3379" width="56" height="26" rx="13" fill="#2268B4"/>
<path d="M29.2423 40.0131H28.0763V43.3379H27.2485V40.0131H26.0825V39.3476H29.2423V40.0131ZM30.5678 39.9939V41.0196H31.8988V41.6439H30.5678V42.6916H32.2783V43.3379H29.7373V39.3476H32.2783V39.9939H30.5678ZM35.002 41.8226L34.5703 40.6016C34.5446 40.5375 34.5171 40.4623 34.4878 40.3761C34.4603 40.29 34.4337 40.1965 34.408 40.0956C34.3824 40.1983 34.3549 40.2936 34.3255 40.3816C34.298 40.4678 34.2715 40.543 34.2458 40.6071L33.8168 41.8226H35.002ZM36.388 43.3379H35.7473C35.6758 43.3379 35.6171 43.3214 35.5713 43.2884C35.5273 43.2536 35.4943 43.2096 35.4723 43.1564L35.2028 42.3946H33.6133L33.3438 43.1564C33.3255 43.2022 33.2934 43.2444 33.2475 43.2829C33.2017 43.3196 33.144 43.3379 33.0743 43.3379H32.428L33.9873 39.3476H34.8315L36.388 43.3379ZM41.1574 39.3476V43.3379H40.4286V40.8876C40.4286 40.8363 40.4295 40.7813 40.4314 40.7226C40.435 40.664 40.4405 40.6044 40.4479 40.5439L39.3066 42.7081C39.2443 42.8273 39.148 42.8869 39.0179 42.8869H38.9024C38.8382 42.8869 38.7814 42.8722 38.7319 42.8429C38.6824 42.8117 38.6429 42.7668 38.6136 42.7081L37.4669 40.5356C37.4724 40.5998 37.4769 40.6621 37.4806 40.7226C37.4843 40.7813 37.4861 40.8363 37.4861 40.8876V43.3379H36.7574V39.3476H37.3844C37.4192 39.3476 37.4504 39.3486 37.4779 39.3504C37.5054 39.3522 37.5292 39.3577 37.5494 39.3669C37.5714 39.3742 37.5906 39.3871 37.6071 39.4054C37.6254 39.4219 37.6429 39.4457 37.6594 39.4769L38.7759 41.6054C38.8107 41.6696 38.8428 41.7356 38.8721 41.8034C38.9033 41.8712 38.9326 41.9409 38.9601 42.0124C38.9876 41.9391 39.016 41.8676 39.0454 41.7979C39.0765 41.7282 39.1095 41.6613 39.1444 41.5971L40.2526 39.4769C40.2691 39.4457 40.2865 39.4219 40.3049 39.4054C40.3232 39.3871 40.3424 39.3742 40.3626 39.3669C40.3846 39.3577 40.4084 39.3522 40.4341 39.3504C40.4616 39.3486 40.4937 39.3476 40.5304 39.3476H41.1574ZM42.4893 39.3476V40.1369L42.4233 40.5686C42.4086 40.6566 42.3821 40.7245 42.3436 40.7721C42.3069 40.8198 42.2455 40.8436 42.1593 40.8436C42.0841 40.8436 42.0264 40.8198 41.9861 40.7721C41.9457 40.7245 41.9164 40.6566 41.8981 40.5686L41.8293 40.1369V39.3476H42.4893ZM45.3319 40.1121C45.3063 40.1543 45.2797 40.1855 45.2522 40.2056C45.2265 40.224 45.1926 40.2331 45.1504 40.2331C45.1101 40.2331 45.0661 40.2194 45.0184 40.1919C44.9726 40.1626 44.9185 40.1314 44.8562 40.0984C44.7939 40.0654 44.7224 40.0351 44.6417 40.0076C44.561 39.9783 44.4666 39.9636 44.3584 39.9636C44.1678 39.9636 44.0248 40.0067 43.9294 40.0929C43.8341 40.1772 43.7864 40.2881 43.7864 40.4256C43.7864 40.5136 43.8121 40.587 43.8634 40.6456C43.9166 40.7025 43.9854 40.752 44.0697 40.7941C44.1559 40.8363 44.253 40.8739 44.3612 40.9069C44.4694 40.9399 44.5803 40.9766 44.6939 41.0169C44.8076 41.0554 44.9185 41.1012 45.0267 41.1544C45.1349 41.2076 45.2311 41.2745 45.3154 41.3551C45.4016 41.4358 45.4704 41.5348 45.5217 41.6521C45.5749 41.7676 45.6014 41.9088 45.6014 42.0756C45.6014 42.2571 45.5694 42.4276 45.5052 42.5871C45.4429 42.7448 45.3521 42.8832 45.2329 43.0024C45.1138 43.1197 44.9662 43.2123 44.7902 43.2801C44.616 43.348 44.418 43.3819 44.1962 43.3819C44.0697 43.3819 43.9432 43.3691 43.8167 43.3434C43.692 43.3177 43.571 43.282 43.4537 43.2361C43.3382 43.1903 43.2291 43.1353 43.1264 43.0711C43.0238 43.007 42.9339 42.9355 42.8569 42.8566L43.0989 42.4661C43.1191 42.4368 43.1457 42.413 43.1787 42.3946C43.2117 42.3745 43.2465 42.3644 43.2832 42.3644C43.3327 42.3644 43.3849 42.3827 43.4399 42.4194C43.4949 42.4561 43.5582 42.4964 43.6297 42.5404C43.7012 42.5844 43.7837 42.6247 43.8772 42.6614C43.9725 42.6981 44.0862 42.7164 44.2182 42.7164C44.4107 42.7164 44.5592 42.6724 44.6637 42.5844C44.77 42.4964 44.8232 42.3653 44.8232 42.1911C44.8232 42.0903 44.7966 42.0087 44.7434 41.9464C44.6921 41.8841 44.6243 41.8318 44.5399 41.7896C44.4556 41.7475 44.3594 41.7117 44.2512 41.6824C44.143 41.6512 44.0321 41.6173 43.9184 41.5806C43.8048 41.544 43.6939 41.5 43.5857 41.4486C43.4775 41.3973 43.3813 41.3295 43.2969 41.2451C43.2126 41.1608 43.1439 41.0563 43.0907 40.9316C43.0394 40.807 43.0137 40.6521 43.0137 40.4669C43.0137 40.3184 43.043 40.1745 43.1017 40.0351C43.1604 39.8958 43.2465 39.7721 43.3602 39.6639C43.4739 39.5557 43.6132 39.4686 43.7782 39.4026C43.945 39.3366 44.1357 39.3036 44.3502 39.3036C44.5904 39.3036 44.8122 39.3412 45.0157 39.4164C45.221 39.4897 45.3943 39.5924 45.5354 39.7244L45.3319 40.1121ZM26.908 45.9059V46.7079H27.952V47.1799H26.908V48.3379H26.304V45.4359H28.152V45.9059H26.908ZM29.8633 47.2359L29.5493 46.3479C29.5307 46.3012 29.5107 46.2466 29.4893 46.1839C29.4693 46.1212 29.45 46.0532 29.4313 45.9799C29.4127 46.0546 29.3927 46.1239 29.3713 46.1879C29.3513 46.2506 29.332 46.3052 29.3133 46.3519L29.0013 47.2359H29.8633ZM30.8713 48.3379H30.4053C30.3533 48.3379 30.3107 48.3259 30.2773 48.3019C30.2453 48.2766 30.2213 48.2446 30.2053 48.2059L30.0093 47.6519H28.8533L28.6573 48.2059C28.644 48.2392 28.6207 48.2699 28.5873 48.2979C28.554 48.3246 28.512 48.3379 28.4613 48.3379H27.9913L29.1253 45.4359H29.7393L30.8713 48.3379ZM33.4456 45.4359L32.2776 48.3379H31.7336L30.5656 45.4359H31.0496C31.1016 45.4359 31.1436 45.4486 31.1756 45.4739C31.2089 45.4979 31.2336 45.5292 31.2496 45.5679L31.8776 47.2399C31.9016 47.3026 31.9249 47.3712 31.9476 47.4459C31.9716 47.5192 31.9936 47.5966 32.0136 47.6779C32.0309 47.5966 32.0496 47.5192 32.0696 47.4459C32.0909 47.3712 32.1136 47.3026 32.1376 47.2399L32.7616 45.5679C32.7749 45.5346 32.7982 45.5046 32.8316 45.4779C32.8662 45.4499 32.9089 45.4359 32.9596 45.4359H33.4456ZM36.4166 46.8859C36.4166 47.0979 36.3806 47.2946 36.3086 47.4759C36.2379 47.6572 36.1373 47.8139 36.0066 47.9459C35.8773 48.0779 35.7213 48.1819 35.5386 48.2579C35.3559 48.3326 35.1533 48.3699 34.9306 48.3699C34.7079 48.3699 34.5053 48.3326 34.3226 48.2579C34.1399 48.1819 33.9833 48.0779 33.8526 47.9459C33.7219 47.8139 33.6206 47.6572 33.5486 47.4759C33.4779 47.2946 33.4426 47.0979 33.4426 46.8859C33.4426 46.6739 33.4779 46.4779 33.5486 46.2979C33.6206 46.1166 33.7219 45.9599 33.8526 45.8279C33.9833 45.6959 34.1399 45.5926 34.3226 45.5179C34.5053 45.4419 34.7079 45.4039 34.9306 45.4039C35.1533 45.4039 35.3559 45.4419 35.5386 45.5179C35.7213 45.5926 35.8773 45.6966 36.0066 45.8299C36.1373 45.9619 36.2379 46.1186 36.3086 46.2999C36.3806 46.4799 36.4166 46.6752 36.4166 46.8859ZM35.8026 46.8859C35.8026 46.7339 35.7826 46.5979 35.7426 46.4779C35.7026 46.3566 35.6446 46.2539 35.5686 46.1699C35.4939 46.0846 35.4026 46.0199 35.2946 45.9759C35.1879 45.9306 35.0666 45.9079 34.9306 45.9079C34.7946 45.9079 34.6726 45.9306 34.5646 45.9759C34.4566 46.0199 34.3646 46.0846 34.2886 46.1699C34.2139 46.2539 34.1566 46.3566 34.1166 46.4779C34.0766 46.5979 34.0566 46.7339 34.0566 46.8859C34.0566 47.0392 34.0766 47.1766 34.1166 47.2979C34.1566 47.4179 34.2139 47.5199 34.2886 47.6039C34.3646 47.6879 34.4566 47.7526 34.5646 47.7979C34.6726 47.8419 34.7946 47.8639 34.9306 47.8639C35.0666 47.8639 35.1879 47.8419 35.2946 47.7979C35.4026 47.7526 35.4939 47.6879 35.5686 47.6039C35.6446 47.5199 35.7026 47.4179 35.7426 47.2979C35.7826 47.1766 35.8026 47.0392 35.8026 46.8859ZM37.7628 46.8099C37.8601 46.8099 37.9441 46.7979 38.0148 46.7739C38.0854 46.7486 38.1434 46.7146 38.1888 46.6719C38.2341 46.6279 38.2674 46.5766 38.2888 46.5179C38.3101 46.4592 38.3208 46.3952 38.3208 46.3259C38.3208 46.1886 38.2748 46.0819 38.1828 46.0059C38.0921 45.9299 37.9534 45.8919 37.7668 45.8919H37.4548V46.8099H37.7628ZM39.1688 48.3379H38.6268C38.5254 48.3379 38.4521 48.2992 38.4068 48.2219L37.8548 47.3319C37.8321 47.2972 37.8068 47.2719 37.7788 47.2559C37.7521 47.2399 37.7121 47.2319 37.6588 47.2319H37.4548V48.3379H36.8548V45.4359H37.7668C37.9694 45.4359 38.1428 45.4572 38.2868 45.4999C38.4308 45.5412 38.5488 45.5992 38.6408 45.6739C38.7328 45.7486 38.8001 45.8379 38.8428 45.9419C38.8854 46.0446 38.9068 46.1579 38.9068 46.2819C38.9068 46.3779 38.8928 46.4692 38.8648 46.5559C38.8381 46.6412 38.7988 46.7192 38.7468 46.7899C38.6948 46.8606 38.6308 46.9232 38.5548 46.9779C38.4788 47.0326 38.3921 47.0766 38.2948 47.1099C38.3334 47.1312 38.3694 47.1572 38.4028 47.1879C38.4361 47.2172 38.4661 47.2526 38.4928 47.2939L39.1688 48.3379ZM40.0564 48.3379H39.4524V45.4359H40.0564V48.3379ZM42.7174 45.9199H41.8694V48.3379H41.2674V45.9199H40.4194V45.4359H42.7174V45.9199ZM43.6814 45.9059V46.6519H44.6494V47.1059H43.6814V47.8679H44.9254V48.3379H43.0774V45.4359H44.9254V45.9059H43.6814Z" fill="white"/>
<path fill-rule="evenodd" clip-rule="evenodd" d="M18.0111 37.4379V40.2379H21.973C22.176 40.2356 22.377 40.2774 22.5621 40.3605C22.7473 40.4436 22.9122 40.566 23.0453 40.7191C23.1785 40.8723 23.2768 41.0525 23.3334 41.2474C23.3899 41.4423 23.4035 41.6472 23.373 41.8478L22.407 48.1478C22.3564 48.4816 22.1868 48.7859 21.9296 49.0046C21.6723 49.2233 21.3447 49.3416 21.007 49.3378H14.1112L14.1112 39.3876L15.9111 35.3379C16.468 35.3379 17.0022 35.5591 17.396 35.953C17.7898 36.3468 18.0111 36.8809 18.0111 37.4379ZM12.1112 49.3378H11.0111C10.6398 49.3378 10.2837 49.1903 10.0212 48.9278C9.75861 48.6652 9.61111 48.3091 9.61111 47.9378V43.0378C9.61111 42.6665 9.75861 42.3104 10.0212 42.0479C10.2837 41.7853 10.6398 41.6379 11.0111 41.6379H12.1112L12.1112 49.3378Z" fill="white"/>
</svg>
